# xmcd CD database file
#
# Track frame offsets:
#	150
#	23482
#	41433
#	64442
#	80188
#	105318
#	122299
#	140779
#	159385
#	205604
#	229985
#
# Disc length: 3303 seconds
#
# Revision: 0
# Processed by: cddbd v1.5.1PL2 Copyright (c) Steve Scherf et al.
# Submitted via: CDex 1.51
#
DISCID=8c0ce50b
DTITLE=Ace - Art - Chrono Trigger Arrange Album
DYEAR=2005
DGENRE=Game
TTITLE0=Heglar - Land of Promise
TTITLE1=kryptos - 憧レノ風ヲ求メテ
TTITLE2=Heglar - Beaux Mysteres
TTITLE3=SOU1 - Theme of DENJIN P
TTITLE4=kryptos - Mad empress
TTITLE5=あず♪ - Pure poison
TTITLE6=Heglar - Fourth Dimension
TTITLE7=kryptos - The crack of doom
TTITLE8=Heglar - Requiem
TTITLE9=kryptos - Time goes by
TTITLE10=Bonus Track
EXTD=YEAR: 2005
EXTT0=
EXTT1=
EXTT2=
EXTT3=
EXTT4=
EXTT5=
EXTT6=
EXTT7=
EXTT8=
EXTT9=
EXTT10=
PLAYORDER=
